<?xml version="1.0" standalone="no"?>
<!DOCTYPE svg PUBLIC "-//W3C//DTD SVG 20010904//EN"
 "http://www.w3.org/TR/2001/REC-SVG-20010904/DTD/svg10.dtd">
<svg version="1.0" xmlns="http://www.w3.org/2000/svg"
 width="283.000000pt" height="283.000000pt" viewBox="0 0 283.000000 283.000000"
 preserveAspectRatio="xMidYMid meet">
<metadata>
Created by potrace 1.11, written by Peter Selinger 2001-2013
</metadata>
<g transform="translate(0.000000,283.000000) scale(0.100000,-0.100000)"
fill="#000000" stroke="none">
<path d="M1105 2671 c-33 -22 -41 -33 -43 -65 -4 -46 45 -155 119 -264 28 -40
49 -74 47 -75 -79 -40 -99 -68 -105 -151 l-6 -66 304 0 c167 0 321 -3 342 -6
l37 -7 0 74 c0 84 -10 104 -70 148 l-39 28 26 38 c34 50 79 151 87 195 6 33 5
33 -6 10 l-12 -25 -4 30 c-2 17 -11 38 -20 49 -23 25 -87 56 -114 55 -14 0
-17 -3 -8 -6 37 -12 60 -28 65 -44 8 -23 -25 -128 -68 -221 l-33 -73 -125 1
c-68 1 -129 2 -135 3 -7 1 -45 61 -87 134 -103 182 -100 177 -107 224 l-5 42
-40 -28z"/>
<path d="M1254 2648 l-19 -23 23 19 c21 18 27 26 19 26 -2 0 -12 -10 -23 -22z"/>
<path d="M1553 2643 c15 -2 37 -2 50 0 12 2 0 4 -28 4 -27 0 -38 -2 -22 -4z"/>
<path d="M2467 2482 c-26 -28 -22 -77 8 -101 l26 -20 -10 -138 c-6 -76 -13
-203 -16 -283 -3 -80 -8 -164 -11 -187 l-5 -43 -65 0 -64 0 0 -365 0 -365 74
0 c126 0 165 9 181 41 8 15 15 37 15 48 0 11 13 34 30 51 43 44 52 93 48 256
-3 125 -5 146 -24 170 -37 51 -41 42 -36 -83 2 -66 0 -133 -6 -153 -10 -35
-10 -35 -11 18 -1 29 -5 83 -11 120 -5 37 -14 103 -20 147 -16 112 -17 115
-50 115 l-29 0 5 83 c3 45 11 191 19 325 14 241 14 244 40 263 49 39 20 119
-43 119 -16 0 -36 -8 -45 -18z"/>
<path d="M256 2369 c-34 -27 -35 -72 -2 -102 13 -12 26 -32 30 -45 4 -12 19
-28 33 -36 l26 -13 -33 -7 c-18 -3 -39 -11 -47 -17 -20 -17 -16 -49 9 -58 21
-8 21 -8 -5 -15 -20 -5 -27 -13 -27 -30 0 -28 16 -36 73 -36 l42 -1 -35 -15
c-71 -31 -91 -71 -45 -92 33 -15 45 -49 45 -127 0 -62 -1 -64 -27 -67 -36 -4
-33 13 -77 -378 l-12 -105 -8 107 c-4 59 -4 139 0 179 8 79 -2 87 -40 35 -19
-24 -21 -45 -24 -170 -4 -163 5 -212 48 -256 17 -17 30 -37 30 -45 0 -8 9 -29
20 -48 23 -39 50 -47 163 -47 l67 0 0 -50 c0 -27 4 -50 8 -50 5 0 14 -78 20
-172 17 -281 72 -400 207 -458 72 -31 305 -68 438 -70 41 0 33 -26 -15 -48
-63 -28 -88 -57 -88 -97 l0 -35 234 0 c129 0 237 4 240 9 3 5 27 12 53 16 66
10 103 48 103 108 0 51 10 57 91 57 64 0 222 28 295 51 43 14 74 32 103 61 58
59 114 181 127 278 5 39 3 49 -20 73 -14 15 -26 24 -26 19 0 -5 -15 -14 -32
-20 -18 -6 -59 -20 -90 -31 -167 -58 -585 -91 -914 -71 -277 16 -499 62 -602
125 -63 38 -91 69 -98 108 -6 37 -6 37 28 37 19 0 38 -4 44 -9 16 -15 205 -78
299 -99 186 -43 340 -55 615 -49 415 9 681 63 799 162 32 28 41 55 17 55 -8 0
-61 -11 -118 -24 -346 -81 -774 -104 -1145 -60 -210 24 -223 29 -223 93 0 28
3 32 18 26 102 -42 306 -24 431 39 76 39 154 117 195 195 l36 69 -3 124 c-2
118 -4 126 -39 198 -121 251 -436 328 -656 163 -18 -14 -36 -23 -38 -20 -10 9
100 85 156 108 44 17 75 22 155 22 55 0 111 -4 125 -10 l25 -11 0 96 0 95
-202 -7 c-148 -5 -203 -4 -203 4 0 6 -4 8 -10 5 -5 -3 -10 3 -10 15 0 19 -4
20 -57 15 -94 -10 -165 -34 -201 -68 -50 -47 -56 -64 -62 -152 l-5 -80 -52 -3
-53 -3 0 58 c0 77 -15 128 -45 151 l-24 19 49 31 c59 37 69 72 21 72 -46 0
-46 17 -1 25 33 6 40 11 40 30 0 16 -7 25 -25 29 -14 4 -30 4 -35 1 -6 -4 -10
-2 -10 3 0 6 11 13 25 16 35 9 31 28 -12 66 l-38 32 28 20 c20 14 27 28 27 51
0 38 -7 50 -37 66 -30 15 -36 14 -67 -10z m909 -754 c50 -25 105 -80 130 -130
11 -24 21 -69 23 -111 5 -91 -21 -155 -87 -217 -153 -143 -398 -73 -457 130
-34 117 8 229 118 312 59 44 198 52 273 16z"/>
<path d="M1007 1540 c-113 -35 -162 -178 -96 -275 75 -109 252 -98 308 18 12
24 21 55 21 69 0 25 -2 26 -28 16 -88 -33 -142 72 -62 120 l29 18 -29 17 c-35
21 -105 29 -143 17z m103 -165 c0 -8 -4 -15 -9 -15 -13 0 -22 16 -14 24 11 11
23 6 23 -9z"/>
<path d="M1780 1671 c-39 -13 -128 -59 -135 -71 -3 -5 -11 -10 -16 -10 -6 0
-7 6 -3 13 20 32 -64 -45 -91 -84 -30 -44 -30 -45 -30 -179 0 -128 1 -138 28
-193 76 -154 253 -247 413 -218 81 15 152 52 208 108 67 68 92 122 101 219 15
176 -58 314 -208 391 -44 23 -67 27 -147 30 -52 1 -106 -1 -120 -6z m149 -285
c-2 -2 -31 -6 -64 -9 -37 -3 -51 -2 -35 3 25 8 107 13 99 6z m60 -50 c-2 -2
-44 -6 -94 -9 -54 -3 -76 -2 -55 2 36 9 157 14 149 7z"/>
<path d="M2776 833 c-17 -89 -18 -102 -2 -125 15 -21 16 -18 16 65 0 89 -4
108 -14 60z"/>
<path d="M1695 20 l-70 -18 62 -1 c53 -1 64 2 73 19 6 11 9 19 8 19 -2 -1 -34
-9 -73 -19z"/>
</g>
</svg>
